<?xml version="1.0" standalone="no"?>
<!DOCTYPE svg PUBLIC "-//W3C//DTD SVG 20010904//EN"
 "http://www.w3.org/TR/2001/REC-SVG-20010904/DTD/svg10.dtd">
<svg version="1.0" xmlns="http://www.w3.org/2000/svg"
 width="512.000000pt" height="512.000000pt" viewBox="0 0 512.000000 512.000000"
 preserveAspectRatio="xMidYMid meet">
<metadata>
Created by potrace 1.11, written by Peter Selinger 2001-2013
</metadata>
<g transform="translate(0.000000,512.000000) scale(0.100000,-0.100000)"
fill="#000000" stroke="none">
<path d="M2360 5110 c-487 -38 -953 -216 -1349 -513 -120 -91 -339 -302 -435
-421 -300 -369 -494 -823 -558 -1306 -16 -123 -16 -509 0 -625 65 -459 233
-873 501 -1230 92 -122 304 -341 426 -440 368 -299 822 -493 1305 -557 123
-16 509 -16 625 0 287 41 547 118 790 236 274 133 460 262 674 471 229 223
376 424 515 705 277 559 338 1184 175 1798 -85 321 -264 672 -479 938 -89 110
-277 296 -390 386 -298 238 -681 422 -1040 502 -234 52 -535 74 -760 56z m510
-836 c170 -29 324 -80 485 -159 167 -83 285 -163 416 -284 95 -88 244 -265
265 -318 43 -102 -35 -223 -143 -223 -69 0 -108 25 -167 104 -202 274 -493
465 -823 542 -133 31 -363 43 -496 25 -379 -51 -722 -251 -951 -555 -68 -91
-91 -108 -155 -114 -133 -12 -221 130 -150 244 72 117 225 281 361 387 267
209 559 327 904 367 106 12 338 4 454 -16z m-1520 -2449 c16 -8 64 -59 106
-113 224 -283 499 -459 834 -534 139 -31 436 -33 570 -5 350 75 662 273 865
550 66 91 103 117 163 117 84 0 141 -43 162 -121 16 -57 -1 -104 -69 -195
-167 -225 -383 -403 -636 -525 -416 -201 -874 -230 -1313 -84 -347 116 -670
357 -863 643 -52 78 -61 119 -38 179 32 85 141 128 219 88z"/>
</g>
</svg>
